<svg width="25" height="24" viewBox="0 0 25 24" fill="none" xmlns="http://www.w3.org/2000/svg">
<path fill-rule="evenodd" clip-rule="evenodd" d="M5.75 7.5C6.99264 7.5 8 6.49264 8 5.25C8 4.00736 6.99264 3 5.75 3C4.50736 3 3.5 4.00736 3.5 5.25C3.5 6.49264 4.50736 7.5 5.75 7.5ZM15.65 8.4C14.1021 8.39469 12.6155 9.0052 11.5182 10.0969C10.4208 11.1887 9.80265 12.672 9.8 14.22V20.1C9.8 20.3387 9.89482 20.5676 10.0636 20.7364C10.2324 20.9052 10.4613 21 10.7 21H12.8C13.2971 21 13.7 20.5971 13.7 20.1V14.22C13.6996 13.6687 13.9338 13.1432 14.3441 12.7749C14.7543 12.4067 15.3019 12.2303 15.85 12.29C16.856 12.4167 17.6079 13.2761 17.6 14.29V20.1C17.6 20.5971 18.0029 21 18.5 21H20.6C21.0971 21 21.5 20.5971 21.5 20.1V14.22C21.4974 12.672 20.8792 11.1887 19.7818 10.0969C18.6845 9.0052 17.1979 8.39469 15.65 8.4ZM3.5 10.2C3.5 9.70294 3.90294 9.3 4.4 9.3H7.1C7.59706 9.3 8 9.70294 8 10.2V20.1C8 20.5971 7.59706 21 7.1 21H4.4C3.90294 21 3.5 20.5971 3.5 20.1V10.2Z" fill="#818181"/>
</svg>
