<svg width="384" height="34" viewBox="0 0 384 34" fill="none" xmlns="http://www.w3.org/2000/svg">
<g clip-path="url(#clip0_5044_36546)">
<path d="M100.72 4.68014C99.9702 1.72014 90.2102 2.14014 84.4602 2.66014C79.5502 3.10014 73.9102 3.91014 67.8302 5.02014C66.2402 2.05014 64.5102 0.0601431 62.4602 0.000143114C60.1402 -0.0598569 57.9802 2.29014 55.6902 7.39014C55.6602 7.44014 55.6402 7.50014 55.6102 7.55014C53.2102 8.10014 50.7802 8.69014 48.3202 9.31014C44.4802 10.2801 40.7202 11.3101 37.1002 12.3701C34.8202 8.71014 32.7202 6.84014 30.6102 6.52014C27.3802 6.03014 24.8502 9.05014 21.9302 12.5501C21.7202 12.8001 21.5202 13.0501 21.3102 13.3001C19.1302 15.9301 18.4302 16.8501 15.9802 19.5801C15.2202 19.8901 14.4702 20.2001 13.7502 20.5101C13.6202 20.5601 13.5002 20.6201 13.3702 20.6701C8.07017 22.9601 -0.709827 27.2301 0.0501734 30.1901C0.520173 32.0601 4.58017 32.5801 8.96017 32.5801C11.5202 32.5801 14.1802 32.4001 16.3002 32.2101C23.0402 31.6001 31.1502 30.3101 39.8902 28.4701C40.8202 29.4701 41.8402 30.1701 42.9902 30.4101C45.2202 31.1301 47.2302 30.1101 49.1402 27.3101C49.3802 26.9601 49.6102 26.5901 49.8302 26.2101C50.7002 26.0001 51.5702 25.7801 52.4502 25.5601C58.1202 24.1201 63.6002 22.5701 68.7302 20.9701C71.0802 27.6601 73.3402 33.8601 76.9402 34.0001C76.9802 34.0001 77.0302 34.0001 77.0702 34.0001C79.7402 34.0001 82.4802 30.6601 85.6702 23.5001L85.7402 23.3401C86.5602 21.4801 88.9702 15.7701 89.9702 13.1701L90.0302 13.0101C95.1602 10.6301 101.36 7.18014 100.72 4.67014M48.5702 10.0401C50.7902 9.47014 52.9902 8.93014 55.1602 8.43014C54.3402 10.1201 53.5402 12.0301 52.7002 14.0401V14.0701C50.4802 19.3301 47.9902 25.3001 45.5302 25.7001C44.8302 25.8101 44.1002 25.4301 43.3102 24.5301C42.8402 23.9901 42.4402 23.3301 42.1002 22.5101C40.4802 18.6301 38.9702 15.5101 37.5402 13.0901C41.0902 12.0301 44.7802 11.0101 48.5602 10.0401M22.2602 15.8001C25.2302 12.4201 27.4602 10.8901 29.0802 11.1401C30.2002 11.3101 31.1202 12.3701 32.0002 13.9001C27.9602 15.1701 24.1302 16.4701 20.6102 17.7801C21.1202 17.2001 21.7502 16.4501 22.2602 15.8101M11.3602 31.5001C8.00017 31.5001 5.57017 31.1501 4.35017 30.4201C3.89017 30.1401 3.61017 29.8201 3.52017 29.4501C3.08017 27.6701 6.92017 24.8301 14.1102 21.5501C14.6902 21.2801 15.2902 21.0201 15.9102 20.7501C16.6402 20.4301 17.4002 20.1101 18.1802 19.7901C22.3702 18.0701 27.1802 16.3501 32.4002 14.6801C32.8802 15.6001 33.3502 16.6301 33.8402 17.7201C34.2102 18.5401 34.6002 19.3901 35.0102 20.2501C36.3902 23.1101 37.7302 25.8701 39.2802 27.8101C27.8702 30.1901 17.8602 31.5001 11.3402 31.5001M52.1602 24.8201C51.5402 24.9801 50.9302 25.1301 50.3102 25.2901C51.3802 23.2801 52.3802 20.9001 53.4102 18.4001C55.1202 14.2901 56.8802 10.0301 59.0202 7.77014C59.1102 7.67014 59.2102 7.59014 59.3002 7.51014C59.6402 7.23014 60.0302 7.06014 60.4002 7.03014C60.6702 7.00014 60.9402 7.03014 61.2102 7.11014C64.0702 7.92014 66.3602 14.3401 68.4102 20.1601C63.3202 21.7901 57.8402 23.3701 52.1602 24.8201ZM85.0702 19.8501L85.0502 19.8901C84.7102 20.7101 81.9202 26.2601 80.0202 27.7301C79.1902 28.3801 78.6902 28.2401 78.5302 28.1901C76.8602 27.7101 75.3002 23.7801 73.6702 19.3701C78.7402 17.6701 83.3702 15.9301 87.3602 14.2101C87.5202 14.1401 87.6702 14.0701 87.8302 14.0101L85.0702 19.8601V19.8501ZM89.3602 12.0101C89.1102 12.1401 88.8502 12.2601 88.5902 12.3901C87.4302 12.9601 86.1702 13.5401 84.8002 14.1301C81.4302 15.5901 77.5702 17.0701 73.3602 18.5201C73.3302 18.4401 73.3002 18.3501 73.2702 18.2701C72.8502 17.1401 72.4302 15.9701 71.9702 14.7901C70.7102 11.5201 69.4902 8.33014 68.1802 5.75014C76.7502 4.21014 84.1602 3.38014 89.3602 3.38014C92.7202 3.38014 95.1502 3.73014 96.3702 4.46014C96.8302 4.74014 97.1102 5.06014 97.2002 5.43014C97.5802 6.96014 94.7602 9.30014 89.3602 12.0101Z" fill="#84EB0C"/>
<path d="M340.511 33.7104C337.511 33.7104 334.961 33.3004 332.861 32.4704C330.751 31.6404 329.151 30.4104 328.051 28.7704C326.951 27.1304 326.401 25.0904 326.401 22.6604V22.3804H333.081V23.2204C333.081 24.1904 333.281 24.9704 333.681 25.5604C334.081 26.1504 334.821 26.5904 335.881 26.8704C336.951 27.1504 338.491 27.2904 340.511 27.2904C342.291 27.2904 343.651 27.1904 344.601 26.9904C345.551 26.7904 346.201 26.4704 346.561 26.0304C346.921 25.5904 347.091 25.0304 347.091 24.3404C347.091 23.3704 346.791 22.6704 346.181 22.2304C345.571 21.7904 344.511 21.4404 343.001 21.1504L334.631 19.8904C332.851 19.5804 331.331 19.0604 330.071 18.3404C328.811 17.6204 327.841 16.6604 327.161 15.4604C326.481 14.2604 326.141 12.8004 326.141 11.0804C326.141 9.89039 326.381 8.72039 326.871 7.57039C327.361 6.42039 328.141 5.38039 329.211 4.46039C330.281 3.54039 331.681 2.80039 333.421 2.24039C335.151 1.68039 337.281 1.40039 339.811 1.40039C342.871 1.40039 345.381 1.86039 347.351 2.78039C349.321 3.70039 350.801 5.00039 351.781 6.67039C352.761 8.34039 353.251 10.2704 353.251 12.4504V12.7304H346.531V12.0804C346.531 11.0804 346.331 10.2704 345.931 9.64039C345.531 9.02039 344.791 8.56039 343.731 8.26039C342.661 7.96039 341.131 7.81039 339.151 7.81039C337.551 7.81039 336.291 7.92039 335.391 8.14039C334.491 8.36039 333.841 8.69039 333.451 9.12039C333.061 9.56039 332.871 10.1204 332.871 10.8104C332.871 11.4004 332.991 11.9004 333.231 12.2904C333.471 12.6804 333.841 12.9804 334.341 13.2004C334.841 13.4204 335.511 13.6104 336.341 13.7604L344.711 15.1704C346.941 15.5504 348.711 16.1504 350.031 17.0004C351.351 17.8404 352.311 18.8704 352.901 20.0704C353.491 21.2704 353.791 22.5904 353.791 24.0304C353.791 25.7204 353.341 27.3004 352.451 28.7804C351.561 30.2604 350.141 31.4604 348.181 32.3604C346.221 33.2704 343.671 33.7204 340.531 33.7204L340.511 33.7104Z" fill="#EEF2E4"/>
<path d="M133.391 17.3204L126.401 1.87039H117.371V33.2404H124.051V17.3204L123.781 12.4004H124.271L126.001 17.3204L132.231 31.3704H140.331L146.561 17.3204L148.301 12.4004H148.791L148.571 17.3204V33.2404H155.241V1.87039H146.161L139.401 17.3204L136.681 24.6704H136.191L133.391 17.3204Z" fill="#EEF2E4"/>
<path fill-rule="evenodd" clip-rule="evenodd" d="M170.681 1.87039L157.641 33.2404H165.121L167.96 26.3104H182.856L185.681 33.2404H193.331L180.201 1.87039H170.681ZM180.279 19.9904L177.491 13.1504L175.671 8.28039H175.181L173.351 13.1504L170.549 19.9904H180.279Z" fill="#EEF2E4"/>
<path fill-rule="evenodd" clip-rule="evenodd" d="M218.821 31.3704C216.491 32.6204 213.721 33.2404 210.521 33.2404H196.141V1.87039H210.521C213.721 1.87039 216.491 2.49039 218.821 3.74039C221.151 4.99039 222.951 6.78039 224.231 9.12039C225.511 11.4604 226.141 14.2704 226.141 17.5504C226.141 20.8304 225.501 23.6404 224.231 25.9804C222.951 28.3204 221.151 30.1204 218.821 31.3704ZM215.441 26.1504C214.211 26.6604 212.571 26.9204 210.521 26.9204H202.821V8.19039H210.521C212.571 8.19039 214.211 8.44039 215.441 8.96039C216.671 9.48039 217.571 10.4104 218.151 11.7504C218.731 13.1004 219.021 15.0704 219.021 17.5604C219.021 20.0504 218.731 21.9804 218.151 23.3404C217.581 24.7004 216.671 25.6304 215.441 26.1504Z" fill="#EEF2E4"/>
<path d="M226.891 1.87039L239.261 33.2404H248.791L261.161 1.87039H253.151L244.341 26.1204H243.891L234.951 1.87039H226.891Z" fill="#EEF2E4"/>
<path fill-rule="evenodd" clip-rule="evenodd" d="M317.141 2.9604C315.421 2.2304 313.331 1.8604 310.871 1.8604H294.401V33.2404H301.091V21.8604H305.501C306.661 21.8604 307.581 21.9604 308.281 22.1604C308.971 22.3704 309.541 22.7004 309.991 23.1704C310.431 23.6404 310.861 24.2804 311.281 25.0904L315.371 33.2404H323.111L318.801 24.8104C318.231 23.7204 317.621 22.8004 316.971 22.0504C316.321 21.3004 315.321 20.7404 313.991 20.3604V19.9804C315.861 19.8004 317.411 19.3304 318.661 18.6004C319.901 17.8604 320.841 16.8904 321.461 15.6704C322.081 14.4504 322.391 12.9904 322.391 11.2704C322.391 9.2804 321.951 7.5804 321.061 6.1704C320.171 4.7604 318.861 3.6904 317.141 2.9604ZM314.301 15.7004C313.561 16.2804 312.401 16.5704 310.831 16.5704H301.081V8.1804H310.831C312.401 8.1804 313.561 8.4804 314.301 9.0904C315.041 9.7004 315.411 10.7904 315.411 12.3504C315.411 14.0104 315.041 15.1204 314.301 15.7004Z" fill="#EEF2E4"/>
<path d="M264.361 33.2404V1.8704H266.241V1.8604H289.601V8.1904H271.041V14.3204H288.931V20.6004H271.041V26.9204H289.601V33.2404H264.361Z" fill="#EEF2E4"/>
<path d="M358.261 33.2404H383.501V26.9204H364.941V20.6004H382.831V14.3204H364.941V8.1904H383.501V1.8604H360.141V1.8704H358.261V33.2404Z" fill="#EEF2E4"/>
</g>
<defs>
<clipPath id="clip0_5044_36546">
<rect width="383.5" height="34.01" fill="white"/>
</clipPath>
</defs>
</svg>
